<svg width="42" height="42" viewBox="0 0 42 42" fill="none" xmlns="http://www.w3.org/2000/svg">
<path d="M39.682 42.0002C40.962 42.0002 42 40.9623 42 39.6821V2.31804C42 1.0377 40.962 0 39.682 0H2.31804C1.03753 0 0 1.0377 0 2.31804V39.6821C0 40.9623 1.03753 42.0002 2.31804 42.0002H39.682Z" fill="#395185"/>
<path d="M28.979 42.0002V25.7355H34.4385L35.2559 19.397H28.979V15.3499C28.979 13.5147 29.4888 12.264 32.1205 12.264L35.477 12.2626V6.59337C34.8963 6.5161 32.9039 6.34351 30.586 6.34351C25.7465 6.34351 22.4334 9.29745 22.4334 14.7223V19.397H16.96V25.7355H22.4334V42.0002H28.979Z" fill="white"/>
</svg>
