<svg width="42" height="42" viewBox="0 0 42 42" fill="none" xmlns="http://www.w3.org/2000/svg">
<path d="M41.2284 32.8996L31.6447 24.1859C31.1917 23.7742 30.5964 23.5546 29.9845 23.5735C29.3726 23.5924 28.792 23.8484 28.3652 24.2873L22.7234 30.0894C21.3655 29.83 18.6353 28.979 15.825 26.1758C13.0147 23.3631 12.1636 20.626 11.9114 19.2774L17.7088 13.6333C18.1483 13.2069 18.4046 12.6262 18.4235 12.0141C18.4424 11.402 18.2225 10.8066 17.8102 10.3539L9.09874 0.772569C8.68625 0.318392 8.11296 0.0428998 7.50063 0.00460155C6.88829 -0.0336967 6.28514 0.168216 5.81928 0.567457L0.703237 4.95496C0.29563 5.36404 0.0523428 5.90849 0.0195258 6.48504C-0.0158386 7.07445 -0.690119 21.0362 10.1361 31.867C19.5807 41.3092 31.4113 42 34.6695 42C35.1458 42 35.4381 41.9859 35.5159 41.9811C36.0924 41.9489 36.6365 41.7045 37.0437 41.2951L41.4288 36.1767C41.8297 35.7123 42.0331 35.1097 41.9956 34.4974C41.9582 33.8851 41.6828 33.3117 41.2284 32.8996Z" fill="black"/>
</svg>
