<svg width="38" height="40" viewBox="0 0 38 40" fill="none" xmlns="http://www.w3.org/2000/svg">
<g clip-path="url(#clip0)">
<path d="M19 3.47827C16.4091 3.47827 14.3849 4.43842 12.9276 6.35871C11.4702 8.279 10.7415 10.7337 10.7415 13.7228C10.7235 17.4366 11.911 20.3804 14.304 22.5544C14.6098 22.8442 14.7178 23.2156 14.6278 23.6685L14.0071 24.9728C13.8092 25.4076 13.5168 25.7473 13.13 25.9919C12.7431 26.2364 11.929 26.5852 10.6875 27.0381C10.6335 27.0562 9.4955 27.4275 7.27344 28.1522C5.05137 28.8768 3.86837 29.2754 3.72443 29.3478C2.21307 29.9819 1.22348 30.6431 0.755682 31.3315C0.251894 32.4728 0 35.3623 0 40H38C38 35.3623 37.7481 32.4728 37.2443 31.3315C36.7765 30.6431 35.7869 29.9819 34.2756 29.3478C34.1316 29.2754 32.9486 28.8768 30.7266 28.1522C28.5045 27.4275 27.3665 27.0562 27.3125 27.0381C26.071 26.5852 25.2569 26.2364 24.87 25.9919C24.4832 25.7473 24.1908 25.4076 23.9929 24.9728L23.3722 23.6685C23.2822 23.2156 23.3902 22.8442 23.696 22.5544C26.089 20.3804 27.2765 17.4366 27.2585 13.7228C27.2585 10.7337 26.5298 8.279 25.0724 6.35871C23.6151 4.43842 21.5909 3.47827 19 3.47827Z" fill="black"/>
</g>
<defs>
<clipPath id="clip0">
<rect width="38" height="40" fill="white"/>
</clipPath>
</defs>
</svg>
