<svg width="40" height="40" viewBox="0 0 40 40" fill="none" xmlns="http://www.w3.org/2000/svg">
<path d="M39.0657 20.3741C39.0657 18.7353 38.9327 17.5395 38.6449 16.2993H19.9316V23.696H30.9159C30.6945 25.5341 29.4987 28.3024 26.8411 30.1625L26.8039 30.4102L32.7206 34.9938L33.1306 35.0347C36.8953 31.5578 39.0657 26.4421 39.0657 20.3741Z" fill="#4285F4"/>
<path d="M19.9313 39.8626C25.3127 39.8626 29.8304 38.0908 33.1303 35.0348L26.8408 30.1626C25.1577 31.3363 22.8988 32.1557 19.9313 32.1557C14.6606 32.1557 10.1872 28.6789 8.59254 23.8733L8.3588 23.8931L2.20643 28.6545L2.12598 28.8782C5.40353 35.389 12.1359 39.8626 19.9313 39.8626Z" fill="#34A853"/>
<path d="M8.59252 23.8733C8.17176 22.6331 7.92824 21.3043 7.92824 19.9313C7.92824 18.5582 8.17176 17.2295 8.57038 15.9893L8.55924 15.7252L2.32977 10.8873L2.12595 10.9843C0.775114 13.6861 0 16.7202 0 19.9313C0 23.1424 0.775114 26.1763 2.12595 28.8782L8.59252 23.8733Z" fill="#FBBC05"/>
<path d="M19.9313 7.70672C23.6739 7.70672 26.1985 9.32336 27.638 10.6744L33.2631 5.18214C29.8084 1.97099 25.3127 0 19.9313 0C12.1359 0 5.40353 4.47344 2.12598 10.9843L8.5704 15.9893C10.1872 11.1837 14.6606 7.70672 19.9313 7.70672Z" fill="#EB4335"/>
</svg>
