<svg width="42" height="42" viewBox="0 0 42 42" fill="none" xmlns="http://www.w3.org/2000/svg">
<path d="M28.471 0.303739C25.7603 0.303739 23.2339 1.4022 21.1516 3.48282C18.7867 5.84774 17.7044 8.75543 18.021 11.8634C18.2585 14.1702 19.3117 16.4964 20.9998 18.577L9.28826 30.2885L7.16726 28.1675C6.13342 27.1288 5.27565 27.9898 4.24019 29.0269L3.23057 30.0866C2.1935 31.1188 1.33734 31.9281 2.3728 32.9636L4.49057 35.0862L2.82673 36.75C2.58032 36.9948 2.38477 37.2858 2.25132 37.6065C2.11787 37.9271 2.04917 38.271 2.04917 38.6182C2.04917 38.9655 2.11787 39.3094 2.25132 39.63C2.38477 39.9506 2.58032 40.2417 2.82673 40.4864C3.86057 41.5187 5.52603 41.5187 6.56311 40.4864L24.9381 22.1114C26.9283 23.3585 29.0897 24.0289 31.1961 24.0289C33.9051 24.0289 36.4364 22.9304 38.517 20.8482C40.8836 18.4849 41.9643 15.5772 41.646 12.4692C41.3617 9.67297 39.8772 6.85897 37.5074 4.49243C34.8227 1.80443 31.6161 0.302124 28.471 0.302124V0.303739ZM28.5727 3.63466C30.823 3.63466 33.1604 4.78643 35.1845 6.81536C36.984 8.60843 38.1067 10.6955 38.3151 12.7212C38.53 14.8277 37.7885 16.834 36.144 18.4768C34.6708 19.9468 32.9536 20.6964 31.096 20.6964C28.8441 20.6964 26.5115 19.543 24.4826 17.5173C22.6846 15.7194 21.562 13.6371 21.3536 11.6114C21.1403 9.50497 21.8786 7.50028 23.5246 5.85582C24.9979 4.38582 26.715 3.63466 28.5711 3.63466H28.5727Z" fill="black"/>
</svg>
